STARTFONT 2.1
FONT -dse-dotmatrix2-medium-r-normal--20-140-100-100-c-140-fontspecific-0
SIZE 140 100 100
FONTBOUNDINGBOX 14 20 0 -4
STARTPROPERTIES 20
DEFAULT_CHAR 32
FONTNAME_REGISTRY ""
FOUNDRY "dse"
FAMILY_NAME "dotmatrix2"
WEIGHT_NAME "medium"
SLANT "r"
SETWIDTH_NAME "normal"
ADD_STYLE_NAME ""
POINT_SIZE 1
PIXEL_SIZE 20
RESOLUTION_X 100
RESOLUTION_Y 100
FONT_ASCENT 16
FONT_DESCENT 4
AVERAGE_WIDTH 140
SPACING "C"
_XMBDFED_INFO "Edited with xmbdfed 4.5."
CHARSET_REGISTRY "fontspecific"
CHARSET_ENCODING "0"
COPYRIGHT "Copyright (C) 2002 by Darren Stuart Embry"
ENDPROPERTIES
CHARS 110
STARTCHAR char11
ENCODING 11
SWIDTH 72 0
DWIDTH 14 0
BBX 14 20 0 -4
BITMAP
0300
0300
0300
0300
0300
0300
0300
0300
FF00
FF00
0000
0000
0000
0000
0000
0000
0000
0000
0000
0000
ENDCHAR
STARTCHAR char12
ENCODING 12
SWIDTH 72 0
DWIDTH 14 0
BBX 14 20 0 -4
BITMAP
0000
0000
0000
0000
0000
0000
0000
0000
FF00
FF00
0300
0300
0300
0300
0300
0300
0300
0300
0300
0300
ENDCHAR
STARTCHAR char13
ENCODING 13
SWIDTH 72 0
DWIDTH 14 0
BBX 14 20 0 -4
BITMAP
0000
0000
0000
0000
0000
0000
0000
0000
03FC
03FC
0300
0300
0300
0300
0300
0300
0300
0300
0300
0300
ENDCHAR
STARTCHAR char14
ENCODING 14
SWIDTH 72 0
DWIDTH 14 0
BBX 14 20 0 -4
BITMAP
0300
0300
0300
0300
0300
0300
0300
0300
03FC
03FC
0000
0000
0000
0000
0000
0000
0000
0000
0000
0000
ENDCHAR
STARTCHAR char15
ENCODING 15
SWIDTH 72 0
DWIDTH 14 0
BBX 14 20 0 -4
BITMAP
0300
0300
0300
0300
0300
0300
0300
0300
FFFC
FFFC
0300
0300
0300
0300
0300
0300
0300
0300
0300
0300
ENDCHAR
STARTCHAR char16
ENCODING 16
SWIDTH 72 0
DWIDTH 14 0
BBX 14 20 0 -4
BITMAP
FFFC
FFFC
0000
0000
0000
0000
0000
0000
0000
0000
0000
0000
0000
0000
0000
0000
0000
0000
0000
0000
ENDCHAR
STARTCHAR char17
ENCODING 17
SWIDTH 72 0
DWIDTH 14 0
BBX 14 20 0 -4
BITMAP
0000
0000
0000
0000
FFFC
FFFC
0000
0000
0000
0000
0000
0000
0000
0000
0000
0000
0000
0000
0000
0000
ENDCHAR
STARTCHAR char18
ENCODING 18
SWIDTH 72 0
DWIDTH 14 0
BBX 14 20 0 -4
BITMAP
0000
0000
0000
0000
0000
0000
0000
0000
FFFC
FFFC
0000
0000
0000
0000
0000
0000
0000
0000
0000
0000
ENDCHAR
STARTCHAR char19
ENCODING 19
SWIDTH 72 0
DWIDTH 14 0
BBX 14 20 0 -4
BITMAP
0000
0000
0000
0000
0000
0000
0000
0000
0000
0000
0000
0000
FFFC
FFFC
0000
0000
0000
0000
0000
0000
ENDCHAR
STARTCHAR char20
ENCODING 20
SWIDTH 72 0
DWIDTH 14 0
BBX 14 20 0 -4
BITMAP
0000
0000
0000
0000
0000
0000
0000
0000
0000
0000
0000
0000
0000
0000
0000
0000
FFFC
FFFC
0000
0000
ENDCHAR
STARTCHAR char21
ENCODING 21
SWIDTH 72 0
DWIDTH 14 0
BBX 14 20 0 -4
BITMAP
0300
0300
0300
0300
0300
0300
0300
0300
03FC
03FC
0300
0300
0300
0300
0300
0300
0300
0300
0300
0300
ENDCHAR
STARTCHAR char22
ENCODING 22
SWIDTH 72 0
DWIDTH 14 0
BBX 14 20 0 -4
BITMAP
0300
0300
0300
0300
0300
0300
0300
0300
FF00
FF00
0300
0300
0300
0300
0300
0300
0300
0300
0300
0300
ENDCHAR
STARTCHAR char23
ENCODING 23
SWIDTH 72 0
DWIDTH 14 0
BBX 14 20 0 -4
BITMAP
0300
0300
0300
0300
0300
0300
0300
0300
FFFC
FFFC
0000
0000
0000
0000
0000
0000
0000
0000
0000
0000
ENDCHAR
STARTCHAR char24
ENCODING 24
SWIDTH 72 0
DWIDTH 14 0
BBX 14 20 0 -4
BITMAP
0000
0000
0000
0000
0000
0000
0000
0000
FFFC
FFFC
0300
0300
0300
0300
0300
0300
0300
0300
0300
0300
ENDCHAR
STARTCHAR char25
ENCODING 25
SWIDTH 72 0
DWIDTH 14 0
BBX 14 20 0 -4
BITMAP
0300
0300
0300
0300
0300
0300
0300
0300
0300
0300
0300
0300
0300
0300
0300
0300
0300
0300
0300
0300
ENDCHAR
STARTCHAR char32
ENCODING 32
SWIDTH 72 0
DWIDTH 14 0
BBX 14 20 0 -4
BITMAP
0000
0000
0000
0000
0000
0000
0000
0000
0000
0000
0000
0000
0000
0000
0000
0000
0000
0000
0000
0000
ENDCHAR
STARTCHAR char33
ENCODING 33
SWIDTH 72 0
DWIDTH 14 0
BBX 14 20 0 -4
BITMAP
0000
0000
0300
0300
0300
0300
0300
0300
0300
0300
0300
0300
0000
0000
0300
0300
0000
0000
0000
0000
ENDCHAR
STARTCHAR char34
ENCODING 34
SWIDTH 72 0
DWIDTH 14 0
BBX 14 20 0 -4
BITMAP
0000
0000
0CC0
0CC0
0CC0
0CC0
0CC0
0CC0
0000
0000
0000
0000
0000
0000
0000
0000
0000
0000
0000
0000
ENDCHAR
STARTCHAR char35
ENCODING 35
SWIDTH 72 0
DWIDTH 14 0
BBX 14 20 0 -4
BITMAP
0000
0000
0CC0
0CC0
0CC0
0CC0
3FF0
3FF0
0CC0
0CC0
3FF0
3FF0
0CC0
0CC0
0CC0
0CC0
0000
0000
0000
0000
ENDCHAR
STARTCHAR char36
ENCODING 36
SWIDTH 72 0
DWIDTH 14 0
BBX 14 20 0 -4
BITMAP
0000
0000
0300
0300
0FF0
0FF0
3300
3300
0FC0
0FC0
0330
0330
3FC0
3FC0
0300
0300
0000
0000
0000
0000
ENDCHAR
STARTCHAR char37
ENCODING 37
SWIDTH 72 0
DWIDTH 14 0
BBX 14 20 0 -4
BITMAP
0000
0000
3C00
3C00
3C30
3C30
00C0
00C0
0300
0300
0C00
0C00
30F0
30F0
00F0
00F0
0000
0000
0000
0000
ENDCHAR
STARTCHAR char38
ENCODING 38
SWIDTH 72 0
DWIDTH 14 0
BBX 14 20 0 -4
BITMAP
0000
0000
0C00
0C00
3300
3300
3300
3300
0C00
0C00
3330
3330
30C0
30C0
0F30
0F30
0000
0000
0000
0000
ENDCHAR
STARTCHAR char39
ENCODING 39
SWIDTH 72 0
DWIDTH 14 0
BBX 14 20 0 -4
BITMAP
0000
0000
0300
0300
0300
0300
0300
0300
0000
0000
0000
0000
0000
0000
0000
0000
0000
0000
0000
0000
ENDCHAR
STARTCHAR char40
ENCODING 40
SWIDTH 72 0
DWIDTH 14 0
BBX 14 20 0 -4
BITMAP
0000
0000
00C0
00C0
0300
0300
0C00
0C00
0C00
0C00
0C00
0C00
0300
0300
00C0
00C0
0000
0000
0000
0000
ENDCHAR
STARTCHAR char41
ENCODING 41
SWIDTH 72 0
DWIDTH 14 0
BBX 14 20 0 -4
BITMAP
0000
0000
0C00
0C00
0300
0300
00C0
00C0
00C0
00C0
00C0
00C0
0300
0300
0C00
0C00
0000
0000
0000
0000
ENDCHAR
STARTCHAR char42
ENCODING 42
SWIDTH 72 0
DWIDTH 14 0
BBX 14 20 0 -4
BITMAP
0000
0000
0300
0300
3330
3330
0FC0
0FC0
0300
0300
0FC0
0FC0
3330
3330
0300
0300
0000
0000
0000
0000
ENDCHAR
STARTCHAR char43
ENCODING 43
SWIDTH 72 0
DWIDTH 14 0
BBX 14 20 0 -4
BITMAP
0000
0000
0000
0000
0300
0300
0300
0300
3FF0
3FF0
0300
0300
0300
0300
0000
0000
0000
0000
0000
0000
ENDCHAR
STARTCHAR char44
ENCODING 44
SWIDTH 72 0
DWIDTH 14 0
BBX 14 20 0 -4
BITMAP
0000
0000
0000
0000
0000
0000
0000
0000
0000
0000
0000
0000
0000
0000
0300
0300
0300
0300
0C00
0C00
ENDCHAR
STARTCHAR char45
ENCODING 45
SWIDTH 72 0
DWIDTH 14 0
BBX 14 20 0 -4
BITMAP
0000
0000
0000
0000
0000
0000
0000
0000
3FF0
3FF0
0000
0000
0000
0000
0000
0000
0000
0000
0000
0000
ENDCHAR
STARTCHAR char46
ENCODING 46
SWIDTH 72 0
DWIDTH 14 0
BBX 14 20 0 -4
BITMAP
0000
0000
0000
0000
0000
0000
0000
0000
0000
0000
0000
0000
0000
0000
0300
0300
0000
0000
0000
0000
ENDCHAR
STARTCHAR char47
ENCODING 47
SWIDTH 72 0
DWIDTH 14 0
BBX 14 20 0 -4
BITMAP
0000
0000
0000
0000
0030
0030
00C0
00C0
0300
0300
0C00
0C00
3000
3000
0000
0000
0000
0000
0000
0000
ENDCHAR
STARTCHAR char48
ENCODING 48
SWIDTH 72 0
DWIDTH 14 0
BBX 14 20 0 -4
BITMAP
0000
0000
0FC0
0FC0
3030
3030
30F0
30F0
3330
3330
3C30
3C30
3030
3030
0FC0
0FC0
0000
0000
0000
0000
ENDCHAR
STARTCHAR char49
ENCODING 49
SWIDTH 72 0
DWIDTH 14 0
BBX 14 20 0 -4
BITMAP
0000
0000
0300
0300
0F00
0F00
0300
0300
0300
0300
0300
0300
0300
0300
0FC0
0FC0
0000
0000
0000
0000
ENDCHAR
STARTCHAR char50
ENCODING 50
SWIDTH 72 0
DWIDTH 14 0
BBX 14 20 0 -4
BITMAP
0000
0000
0FC0
0FC0
3030
3030
0030
0030
03C0
03C0
0C00
0C00
3000
3000
3FF0
3FF0
0000
0000
0000
0000
ENDCHAR
STARTCHAR char51
ENCODING 51
SWIDTH 72 0
DWIDTH 14 0
BBX 14 20 0 -4
BITMAP
0000
0000
3FF0
3FF0
0030
0030
00C0
00C0
03C0
03C0
0030
0030
3030
3030
0FC0
0FC0
0000
0000
0000
0000
ENDCHAR
STARTCHAR char52
ENCODING 52
SWIDTH 72 0
DWIDTH 14 0
BBX 14 20 0 -4
BITMAP
0000
0000
00C0
00C0
03C0
03C0
0CC0
0CC0
30C0
30C0
3FF0
3FF0
00C0
00C0
00C0
00C0
0000
0000
0000
0000
ENDCHAR
STARTCHAR char53
ENCODING 53
SWIDTH 72 0
DWIDTH 14 0
BBX 14 20 0 -4
BITMAP
0000
0000
3FF0
3FF0
3000
3000
3FC0
3FC0
0030
0030
0030
0030
3030
3030
0FC0
0FC0
0000
0000
0000
0000
ENDCHAR
STARTCHAR char54
ENCODING 54
SWIDTH 72 0
DWIDTH 14 0
BBX 14 20 0 -4
BITMAP
0000
0000
03F0
03F0
0C00
0C00
3000
3000
3FC0
3FC0
3030
3030
3030
3030
0FC0
0FC0
0000
0000
0000
0000
ENDCHAR
STARTCHAR char55
ENCODING 55
SWIDTH 72 0
DWIDTH 14 0
BBX 14 20 0 -4
BITMAP
0000
0000
3FF0
3FF0
0030
0030
00C0
00C0
0300
0300
0C00
0C00
0C00
0C00
0C00
0C00
0000
0000
0000
0000
ENDCHAR
STARTCHAR char56
ENCODING 56
SWIDTH 72 0
DWIDTH 14 0
BBX 14 20 0 -4
BITMAP
0000
0000
0FC0
0FC0
3030
3030
3030
3030
0FC0
0FC0
3030
3030
3030
3030
0FC0
0FC0
0000
0000
0000
0000
ENDCHAR
STARTCHAR char57
ENCODING 57
SWIDTH 72 0
DWIDTH 14 0
BBX 14 20 0 -4
BITMAP
0000
0000
0FC0
0FC0
3030
3030
3030
3030
0FF0
0FF0
0030
0030
00C0
00C0
3F00
3F00
0000
0000
0000
0000
ENDCHAR
STARTCHAR char58
ENCODING 58
SWIDTH 72 0
DWIDTH 14 0
BBX 14 20 0 -4
BITMAP
0000
0000
0000
0000
0000
0000
0300
0300
0000
0000
0000
0000
0000
0000
0300
0300
0000
0000
0000
0000
ENDCHAR
STARTCHAR char59
ENCODING 59
SWIDTH 72 0
DWIDTH 14 0
BBX 14 20 0 -4
BITMAP
0000
0000
0000
0000
0000
0000
0300
0300
0000
0000
0000
0000
0000
0000
0300
0300
0300
0300
0C00
0C00
ENDCHAR
STARTCHAR char60
ENCODING 60
SWIDTH 72 0
DWIDTH 14 0
BBX 14 20 0 -4
BITMAP
0000
0000
00C0
00C0
0300
0300
0C00
0C00
3000
3000
0C00
0C00
0300
0300
00C0
00C0
0000
0000
0000
0000
ENDCHAR
STARTCHAR char61
ENCODING 61
SWIDTH 72 0
DWIDTH 14 0
BBX 14 20 0 -4
BITMAP
0000
0000
0000
0000
0000
0000
3FF0
3FF0
0000
0000
3FF0
3FF0
0000
0000
0000
0000
0000
0000
0000
0000
ENDCHAR
STARTCHAR char62
ENCODING 62
SWIDTH 72 0
DWIDTH 14 0
BBX 14 20 0 -4
BITMAP
0000
0000
0C00
0C00
0300
0300
00C0
00C0
0030
0030
00C0
00C0
0300
0300
0C00
0C00
0000
0000
0000
0000
ENDCHAR
STARTCHAR char63
ENCODING 63
SWIDTH 72 0
DWIDTH 14 0
BBX 14 20 0 -4
BITMAP
0000
0000
0FC0
0FC0
3030
3030
00C0
00C0
0300
0300
0300
0300
0000
0000
0300
0300
0000
0000
0000
0000
ENDCHAR
STARTCHAR char64
ENCODING 64
SWIDTH 72 0
DWIDTH 14 0
BBX 14 20 0 -4
BITMAP
0000
0000
0FC0
0FC0
3030
3030
3330
3330
33F0
33F0
33C0
33C0
3000
3000
0FC0
0FC0
0000
0000
0000
0000
ENDCHAR
STARTCHAR char65
ENCODING 65
SWIDTH 72 0
DWIDTH 14 0
BBX 14 20 0 -4
BITMAP
0000
0000
0300
0300
0CC0
0CC0
3030
3030
3030
3030
3FF0
3FF0
3030
3030
3030
3030
0000
0000
0000
0000
ENDCHAR
STARTCHAR char66
ENCODING 66
SWIDTH 72 0
DWIDTH 14 0
BBX 14 20 0 -4
BITMAP
0000
0000
3FC0
3FC0
3030
3030
3030
3030
3FC0
3FC0
3030
3030
3030
3030
3FC0
3FC0
0000
0000
0000
0000
ENDCHAR
STARTCHAR char67
ENCODING 67
SWIDTH 72 0
DWIDTH 14 0
BBX 14 20 0 -4
BITMAP
0000
0000
0FC0
0FC0
3030
3030
3000
3000
3000
3000
3000
3000
3030
3030
0FC0
0FC0
0000
0000
0000
0000
ENDCHAR
STARTCHAR char68
ENCODING 68
SWIDTH 72 0
DWIDTH 14 0
BBX 14 20 0 -4
BITMAP
0000
0000
3FC0
3FC0
3030
3030
3030
3030
3030
3030
3030
3030
3030
3030
3FC0
3FC0
0000
0000
0000
0000
ENDCHAR
STARTCHAR char69
ENCODING 69
SWIDTH 72 0
DWIDTH 14 0
BBX 14 20 0 -4
BITMAP
0000
0000
3FF0
3FF0
3000
3000
3000
3000
3FC0
3FC0
3000
3000
3000
3000
3FF0
3FF0
0000
0000
0000
0000
ENDCHAR
STARTCHAR char70
ENCODING 70
SWIDTH 72 0
DWIDTH 14 0
BBX 14 20 0 -4
BITMAP
0000
0000
3FF0
3FF0
3000
3000
3000
3000
3FC0
3FC0
3000
3000
3000
3000
3000
3000
0000
0000
0000
0000
ENDCHAR
STARTCHAR char71
ENCODING 71
SWIDTH 72 0
DWIDTH 14 0
BBX 14 20 0 -4
BITMAP
0000
0000
0FF0
0FF0
3000
3000
3000
3000
3000
3000
30F0
30F0
3030
3030
0FF0
0FF0
0000
0000
0000
0000
ENDCHAR
STARTCHAR char72
ENCODING 72
SWIDTH 72 0
DWIDTH 14 0
BBX 14 20 0 -4
BITMAP
0000
0000
3030
3030
3030
3030
3030
3030
3FF0
3FF0
3030
3030
3030
3030
3030
3030
0000
0000
0000
0000
ENDCHAR
STARTCHAR char73
ENCODING 73
SWIDTH 72 0
DWIDTH 14 0
BBX 14 20 0 -4
BITMAP
0000
0000
0FC0
0FC0
0300
0300
0300
0300
0300
0300
0300
0300
0300
0300
0FC0
0FC0
0000
0000
0000
0000
ENDCHAR
STARTCHAR char74
ENCODING 74
SWIDTH 72 0
DWIDTH 14 0
BBX 14 20 0 -4
BITMAP
0000
0000
0030
0030
0030
0030
0030
0030
0030
0030
0030
0030
3030
3030
0FC0
0FC0
0000
0000
0000
0000
ENDCHAR
STARTCHAR char75
ENCODING 75
SWIDTH 72 0
DWIDTH 14 0
BBX 14 20 0 -4
BITMAP
0000
0000
3030
3030
30C0
30C0
3300
3300
3C00
3C00
3300
3300
30C0
30C0
3030
3030
0000
0000
0000
0000
ENDCHAR
STARTCHAR char76
ENCODING 76
SWIDTH 72 0
DWIDTH 14 0
BBX 14 20 0 -4
BITMAP
0000
0000
3000
3000
3000
3000
3000
3000
3000
3000
3000
3000
3000
3000
3FF0
3FF0
0000
0000
0000
0000
ENDCHAR
STARTCHAR char77
ENCODING 77
SWIDTH 72 0
DWIDTH 14 0
BBX 14 20 0 -4
BITMAP
0000
0000
3030
3030
3CF0
3CF0
3330
3330
3330
3330
3030
3030
3030
3030
3030
3030
0000
0000
0000
0000
ENDCHAR
STARTCHAR char78
ENCODING 78
SWIDTH 72 0
DWIDTH 14 0
BBX 14 20 0 -4
BITMAP
0000
0000
3030
3030
3030
3030
3C30
3C30
3330
3330
30F0
30F0
3030
3030
3030
3030
0000
0000
0000
0000
ENDCHAR
STARTCHAR char79
ENCODING 79
SWIDTH 72 0
DWIDTH 14 0
BBX 14 20 0 -4
BITMAP
0000
0000
0FC0
0FC0
3030
3030
3030
3030
3030
3030
3030
3030
3030
3030
0FC0
0FC0
0000
0000
0000
0000
ENDCHAR
STARTCHAR char80
ENCODING 80
SWIDTH 72 0
DWIDTH 14 0
BBX 14 20 0 -4
BITMAP
0000
0000
3FC0
3FC0
3030
3030
3030
3030
3FC0
3FC0
3000
3000
3000
3000
3000
3000
0000
0000
0000
0000
ENDCHAR
STARTCHAR char81
ENCODING 81
SWIDTH 72 0
DWIDTH 14 0
BBX 14 20 0 -4
BITMAP
0000
0000
0FC0
0FC0
3030
3030
3030
3030
3030
3030
3330
3330
30C0
30C0
0F30
0F30
0000
0000
0000
0000
ENDCHAR
STARTCHAR char82
ENCODING 82
SWIDTH 72 0
DWIDTH 14 0
BBX 14 20 0 -4
BITMAP
0000
0000
3FC0
3FC0
3030
3030
3030
3030
3FC0
3FC0
3300
3300
30C0
30C0
3030
3030
0000
0000
0000
0000
ENDCHAR
STARTCHAR char83
ENCODING 83
SWIDTH 72 0
DWIDTH 14 0
BBX 14 20 0 -4
BITMAP
0000
0000
0FC0
0FC0
3030
3030
3000
3000
0FC0
0FC0
0030
0030
3030
3030
0FC0
0FC0
0000
0000
0000
0000
ENDCHAR
STARTCHAR char84
ENCODING 84
SWIDTH 72 0
DWIDTH 14 0
BBX 14 20 0 -4
BITMAP
0000
0000
3FF0
3FF0
0300
0300
0300
0300
0300
0300
0300
0300
0300
0300
0300
0300
0000
0000
0000
0000
ENDCHAR
STARTCHAR char85
ENCODING 85
SWIDTH 72 0
DWIDTH 14 0
BBX 14 20 0 -4
BITMAP
0000
0000
3030
3030
3030
3030
3030
3030
3030
3030
3030
3030
3030
3030
0FC0
0FC0
0000
0000
0000
0000
ENDCHAR
STARTCHAR char86
ENCODING 86
SWIDTH 72 0
DWIDTH 14 0
BBX 14 20 0 -4
BITMAP
0000
0000
3030
3030
3030
3030
3030
3030
3030
3030
3030
3030
0CC0
0CC0
0300
0300
0000
0000
0000
0000
ENDCHAR
STARTCHAR char87
ENCODING 87
SWIDTH 72 0
DWIDTH 14 0
BBX 14 20 0 -4
BITMAP
0000
0000
3030
3030
3030
3030
3030
3030
3330
3330
3330
3330
3CF0
3CF0
3030
3030
0000
0000
0000
0000
ENDCHAR
STARTCHAR char88
ENCODING 88
SWIDTH 72 0
DWIDTH 14 0
BBX 14 20 0 -4
BITMAP
0000
0000
3030
3030
3030
3030
0CC0
0CC0
0300
0300
0CC0
0CC0
3030
3030
3030
3030
0000
0000
0000
0000
ENDCHAR
STARTCHAR char89
ENCODING 89
SWIDTH 72 0
DWIDTH 14 0
BBX 14 20 0 -4
BITMAP
0000
0000
3030
3030
3030
3030
0CC0
0CC0
0300
0300
0300
0300
0300
0300
0300
0300
0000
0000
0000
0000
ENDCHAR
STARTCHAR char90
ENCODING 90
SWIDTH 72 0
DWIDTH 14 0
BBX 14 20 0 -4
BITMAP
0000
0000
3FF0
3FF0
0030
0030
00C0
00C0
0300
0300
0C00
0C00
3000
3000
3FF0
3FF0
0000
0000
0000
0000
ENDCHAR
STARTCHAR char91
ENCODING 91
SWIDTH 72 0
DWIDTH 14 0
BBX 14 20 0 -4
BITMAP
0000
0000
3FF0
3FF0
3C00
3C00
3C00
3C00
3C00
3C00
3C00
3C00
3C00
3C00
3FF0
3FF0
0000
0000
0000
0000
ENDCHAR
STARTCHAR char92
ENCODING 92
SWIDTH 72 0
DWIDTH 14 0
BBX 14 20 0 -4
BITMAP
0000
0000
0000
0000
3000
3000
0C00
0C00
0300
0300
00C0
00C0
0030
0030
0000
0000
0000
0000
0000
0000
ENDCHAR
STARTCHAR char93
ENCODING 93
SWIDTH 72 0
DWIDTH 14 0
BBX 14 20 0 -4
BITMAP
0000
0000
3FF0
3FF0
00F0
00F0
00F0
00F0
00F0
00F0
00F0
00F0
00F0
00F0
3FF0
3FF0
0000
0000
0000
0000
ENDCHAR
STARTCHAR char94
ENCODING 94
SWIDTH 72 0
DWIDTH 14 0
BBX 14 20 0 -4
BITMAP
0000
0000
0300
0300
0CC0
0CC0
3030
3030
0000
0000
0000
0000
0000
0000
0000
0000
0000
0000
0000
0000
ENDCHAR
STARTCHAR char95
ENCODING 95
SWIDTH 72 0
DWIDTH 14 0
BBX 14 20 0 -4
BITMAP
0000
0000
0000
0000
0000
0000
0000
0000
0000
0000
0000
0000
0000
0000
0000
0000
0000
0000
3FF0
3FF0
ENDCHAR
STARTCHAR char96
ENCODING 96
SWIDTH 72 0
DWIDTH 14 0
BBX 14 20 0 -4
BITMAP
0000
0000
0300
0300
0300
0300
00C0
00C0
0000
0000
0000
0000
0000
0000
0000
0000
0000
0000
0000
0000
ENDCHAR
STARTCHAR char97
ENCODING 97
SWIDTH 72 0
DWIDTH 14 0
BBX 14 20 0 -4
BITMAP
0000
0000
0000
0000
0000
0000
0FC0
0FC0
0030
0030
0FF0
0FF0
3030
3030
0FF0
0FF0
0000
0000
0000
0000
ENDCHAR
STARTCHAR char98
ENCODING 98
SWIDTH 72 0
DWIDTH 14 0
BBX 14 20 0 -4
BITMAP
0000
0000
3000
3000
3000
3000
3FC0
3FC0
3030
3030
3030
3030
3030
3030
3FC0
3FC0
0000
0000
0000
0000
ENDCHAR
STARTCHAR char99
ENCODING 99
SWIDTH 72 0
DWIDTH 14 0
BBX 14 20 0 -4
BITMAP
0000
0000
0000
0000
0000
0000
0FF0
0FF0
3000
3000
3000
3000
3000
3000
0FF0
0FF0
0000
0000
0000
0000
ENDCHAR
STARTCHAR char100
ENCODING 100
SWIDTH 72 0
DWIDTH 14 0
BBX 14 20 0 -4
BITMAP
0000
0000
0030
0030
0030
0030
0FF0
0FF0
3030
3030
3030
3030
3030
3030
0FF0
0FF0
0000
0000
0000
0000
ENDCHAR
STARTCHAR char101
ENCODING 101
SWIDTH 72 0
DWIDTH 14 0
BBX 14 20 0 -4
BITMAP
0000
0000
0000
0000
0000
0000
0FC0
0FC0
3030
3030
3FF0
3FF0
3000
3000
0FF0
0FF0
0000
0000
0000
0000
ENDCHAR
STARTCHAR char102
ENCODING 102
SWIDTH 72 0
DWIDTH 14 0
BBX 14 20 0 -4
BITMAP
0000
0000
01E0
01E0
0618
0618
0600
0600
1FE0
1FE0
0600
0600
0600
0600
0600
0600
0000
0000
0000
0000
ENDCHAR
STARTCHAR char103
ENCODING 103
SWIDTH 72 0
DWIDTH 14 0
BBX 14 20 0 -4
BITMAP
0000
0000
0000
0000
0000
0000
0FC0
0FC0
3030
3030
3030
3030
3030
3030
0FF0
0FF0
0030
0030
0FC0
0FC0
ENDCHAR
STARTCHAR char104
ENCODING 104
SWIDTH 72 0
DWIDTH 14 0
BBX 14 20 0 -4
BITMAP
0000
0000
3000
3000
3000
3000
3FC0
3FC0
3030
3030
3030
3030
3030
3030
3030
3030
0000
0000
0000
0000
ENDCHAR
STARTCHAR char105
ENCODING 105
SWIDTH 72 0
DWIDTH 14 0
BBX 14 20 0 -4
BITMAP
0000
0000
0300
0300
0000
0000
0F00
0F00
0300
0300
0300
0300
0300
0300
0FC0
0FC0
0000
0000
0000
0000
ENDCHAR
STARTCHAR char106
ENCODING 106
SWIDTH 72 0
DWIDTH 14 0
BBX 14 20 0 -4
BITMAP
0000
0000
00C0
00C0
0000
0000
03C0
03C0
00C0
00C0
00C0
00C0
00C0
00C0
00C0
00C0
30C0
30C0
0F00
0F00
ENDCHAR
STARTCHAR char107
ENCODING 107
SWIDTH 72 0
DWIDTH 14 0
BBX 14 20 0 -4
BITMAP
0000
0000
3000
3000
3000
3000
3030
3030
30C0
30C0
3F00
3F00
30C0
30C0
3030
3030
0000
0000
0000
0000
ENDCHAR
STARTCHAR char108
ENCODING 108
SWIDTH 72 0
DWIDTH 14 0
BBX 14 20 0 -4
BITMAP
0000
0000
0F00
0F00
0300
0300
0300
0300
0300
0300
0300
0300
0300
0300
0FC0
0FC0
0000
0000
0000
0000
ENDCHAR
STARTCHAR char109
ENCODING 109
SWIDTH 72 0
DWIDTH 14 0
BBX 14 20 0 -4
BITMAP
0000
0000
0000
0000
0000
0000
3CF0
3CF0
3330
3330
3330
3330
3330
3330
3330
3330
0000
0000
0000
0000
ENDCHAR
STARTCHAR char110
ENCODING 110
SWIDTH 72 0
DWIDTH 14 0
BBX 14 20 0 -4
BITMAP
0000
0000
0000
0000
0000
0000
3FC0
3FC0
3030
3030
3030
3030
3030
3030
3030
3030
0000
0000
0000
0000
ENDCHAR
STARTCHAR char111
ENCODING 111
SWIDTH 72 0
DWIDTH 14 0
BBX 14 20 0 -4
BITMAP
0000
0000
0000
0000
0000
0000
0FC0
0FC0
3030
3030
3030
3030
3030
3030
0FC0
0FC0
0000
0000
0000
0000
ENDCHAR
STARTCHAR char112
ENCODING 112
SWIDTH 72 0
DWIDTH 14 0
BBX 14 20 0 -4
BITMAP
0000
0000
0000
0000
0000
0000
3FC0
3FC0
3030
3030
3030
3030
3030
3030
3FC0
3FC0
3000
3000
3000
3000
ENDCHAR
STARTCHAR char113
ENCODING 113
SWIDTH 72 0
DWIDTH 14 0
BBX 14 20 0 -4
BITMAP
0000
0000
0000
0000
0000
0000
0FF0
0FF0
3030
3030
3030
3030
3030
3030
0FF0
0FF0
0030
0030
0030
0030
ENDCHAR
STARTCHAR char114
ENCODING 114
SWIDTH 72 0
DWIDTH 14 0
BBX 14 20 0 -4
BITMAP
0000
0000
0000
0000
0000
0000
33F0
33F0
3C00
3C00
3000
3000
3000
3000
3000
3000
0000
0000
0000
0000
ENDCHAR
STARTCHAR char115
ENCODING 115
SWIDTH 72 0
DWIDTH 14 0
BBX 14 20 0 -4
BITMAP
0000
0000
0000
0000
0000
0000
0FF0
0FF0
3000
3000
0FC0
0FC0
0030
0030
3FC0
3FC0
0000
0000
0000
0000
ENDCHAR
STARTCHAR char116
ENCODING 116
SWIDTH 72 0
DWIDTH 14 0
BBX 14 20 0 -4
BITMAP
0000
0000
0000
0000
0C00
0C00
3FC0
3FC0
0C00
0C00
0C00
0C00
0C30
0C30
03C0
03C0
0000
0000
0000
0000
ENDCHAR
STARTCHAR char117
ENCODING 117
SWIDTH 72 0
DWIDTH 14 0
BBX 14 20 0 -4
BITMAP
0000
0000
0000
0000
0000
0000
3030
3030
3030
3030
3030
3030
30F0
30F0
0F30
0F30
0000
0000
0000
0000
ENDCHAR
STARTCHAR char118
ENCODING 118
SWIDTH 72 0
DWIDTH 14 0
BBX 14 20 0 -4
BITMAP
0000
0000
0000
0000
0000
0000
3030
3030
3030
3030
3030
3030
0CC0
0CC0
0300
0300
0000
0000
0000
0000
ENDCHAR
STARTCHAR char119
ENCODING 119
SWIDTH 72 0
DWIDTH 14 0
BBX 14 20 0 -4
BITMAP
0000
0000
0000
0000
0000
0000
3030
3030
3030
3030
3330
3330
3330
3330
3CF0
3CF0
0000
0000
0000
0000
ENDCHAR
STARTCHAR char120
ENCODING 120
SWIDTH 72 0
DWIDTH 14 0
BBX 14 20 0 -4
BITMAP
0000
0000
0000
0000
0000
0000
3030
3030
0CC0
0CC0
0300
0300
0CC0
0CC0
3030
3030
0000
0000
0000
0000
ENDCHAR
STARTCHAR char121
ENCODING 121
SWIDTH 72 0
DWIDTH 14 0
BBX 14 20 0 -4
BITMAP
0000
0000
0000
0000
0000
0000
3030
3030
3030
3030
3030
3030
3030
3030
0FF0
0FF0
0030
0030
0FC0
0FC0
ENDCHAR
STARTCHAR char122
ENCODING 122
SWIDTH 72 0
DWIDTH 14 0
BBX 14 20 0 -4
BITMAP
0000
0000
0000
0000
0000
0000
3FF0
3FF0
00C0
00C0
0300
0300
0C00
0C00
3FF0
3FF0
0000
0000
0000
0000
ENDCHAR
STARTCHAR char123
ENCODING 123
SWIDTH 72 0
DWIDTH 14 0
BBX 14 20 0 -4
BITMAP
0000
0000
03C0
03C0
0C00
0C00
0C00
0C00
3000
3000
0C00
0C00
0C00
0C00
03C0
03C0
0000
0000
0000
0000
ENDCHAR
STARTCHAR char124
ENCODING 124
SWIDTH 72 0
DWIDTH 14 0
BBX 14 20 0 -4
BITMAP
0000
0000
0300
0300
0300
0300
0300
0300
0000
0000
0300
0300
0300
0300
0300
0300
0000
0000
0000
0000
ENDCHAR
STARTCHAR char125
ENCODING 125
SWIDTH 72 0
DWIDTH 14 0
BBX 14 20 0 -4
BITMAP
0000
0000
0F00
0F00
00C0
00C0
00C0
00C0
0030
0030
00C0
00C0
00C0
00C0
0F00
0F00
0000
0000
0000
0000
ENDCHAR
STARTCHAR char126
ENCODING 126
SWIDTH 72 0
DWIDTH 14 0
BBX 14 20 0 -4
BITMAP
0000
0000
0C00
0C00
3330
3330
00C0
00C0
0000
0000
0000
0000
0000
0000
0000
0000
0000
0000
0000
0000
ENDCHAR
ENDFONT
